<svg xmlns="http://www.w3.org/2000/svg" width="1640" height="940" viewBox="0 0 1640 940">
<defs><filter id="shadow" x="-10%" y="-10%" width="120%" height="140%"><feDropShadow dx="0" dy="1.5" stdDeviation="1.5" flood-color="#1F2328" flood-opacity="0.12"/></filter><marker id="arrow" viewBox="0 0 10 10" refX="9" refY="5" markerWidth="7" markerHeight="7" orient="auto-start-reverse"><path d="M0 0 L10 5 L0 10 z" fill="#59636E"/></marker><marker id="arrowStart" viewBox="0 0 10 10" refX="9" refY="5" markerWidth="7" markerHeight="7" orient="auto-start-reverse"><path d="M0 0 L10 5 L0 10 z" fill="#59636E"/></marker></defs>
<rect width="1640" height="940" rx="16" fill="#FFFFFF"/>
<text x="24" y="46" font-family="Segoe UI, -apple-system, Helvetica, Arial, sans-serif" font-size="22" font-weight="700" fill="#1F2328" text-anchor="start">GenAI Daily Digest · Architecture</text>
<text x="24" y="70" font-family="Segoe UI, -apple-system, Helvetica, Arial, sans-serif" font-size="12.5" font-weight="400" fill="#59636E" text-anchor="start">Every 3 h: collect → scouts → analyst → Latest dashboard.   10:00 IST: writer + editor → digest, op-ed and one email.</text>
<circle cx="1150" cy="42" r="5" fill="#1A7F37"/>
<text x="1160" y="46" font-family="Segoe UI, -apple-system, Helvetica, Arial, sans-serif" font-size="11" font-weight="400" fill="#59636E" text-anchor="start">working today</text>
<circle cx="1262" cy="42" r="5" fill="#AFB8C1"/>
<text x="1272" y="46" font-family="Segoe UI, -apple-system, Helvetica, Arial, sans-serif" font-size="11" font-weight="400" fill="#59636E" text-anchor="start">next phases</text>
<path d="M1400 42 L1440 42" stroke="#59636E" stroke-width="1.6" marker-end="url(#arrow)"/>
<text x="1446" y="46" font-family="Segoe UI, -apple-system, Helvetica, Arial, sans-serif" font-size="11" font-weight="400" fill="#59636E" text-anchor="start">every 3 h</text>
<path d="M1510 42 L1550 42" stroke="#59636E" stroke-width="1.6" stroke-dasharray="6 4" marker-end="url(#arrow)"/>
<text x="1556" y="46" font-family="Segoe UI, -apple-system, Helvetica, Arial, sans-serif" font-size="11" font-weight="400" fill="#59636E" text-anchor="start">10:00 IST</text>
<rect x="24" y="92" width="272" height="822" rx="14" fill="#F6F8FA" stroke="#D1D9E0" stroke-width="1.5"/><text x="40" y="117" font-family="Segoe UI, -apple-system, Helvetica, Arial, sans-serif" font-size="15" font-weight="700" fill="#1F2328" text-anchor="start">Sources</text><text x="40" y="134" font-family="Segoe UI, -apple-system, Helvetica, Arial, sans-serif" font-size="11" font-weight="400" fill="#59636E" text-anchor="start">30 sources · every 3 h</text>
<rect x="320" y="92" width="766" height="822" rx="14" fill="#F1F8FF" stroke="#2088FF" stroke-width="1.5"/><svg x="334" y="104" width="26" height="26" viewBox="0 0 24 24"><path fill="#2088FF" d="M10.984 13.836a.5.5 0 0 1-.353-.146l-.745-.743a.5.5 0 1 1 .706-.708l.392.391 1.181-1.18a.5.5 0 0 1 .708.707l-1.535 1.533a.504.504 0 0 1-.354.146zm9.353-.147l1.534-1.532a.5.5 0 0 0-.707-.707l-1.181 1.18-.392-.391a.5.5 0 1 0-.706.708l.746.743a.497.497 0 0 0 .706-.001zM4.527 7.452l2.557-1.585A1 1 0 0 0 7.09 4.17L4.533 2.56A1 1 0 0 0 3 3.406v3.196a1.001 1.001 0 0 0 1.527.85zm2.03-2.436L4 6.602V3.406l2.557 1.61zM24 12.5c0 1.93-1.57 3.5-3.5 3.5a3.503 3.503 0 0 1-3.46-3h-2.08a3.503 3.503 0 0 1-3.46 3 3.502 3.502 0 0 1-3.46-3h-.558c-.972 0-1.85-.399-2.482-1.042V17c0 1.654 1.346 3 3 3h.04c.244-1.693 1.7-3 3.46-3 1.93 0 3.5 1.57 3.5 3.5S13.43 24 11.5 24a3.502 3.502 0 0 1-3.46-3H8c-2.206 0-4-1.794-4-4V9.899A5.008 5.008 0 0 1 0 5c0-2.757 2.243-5 5-5s5 2.243 5 5a5.005 5.005 0 0 1-4.952 4.998A2.482 2.482 0 0 0 7.482 12h.558c.244-1.693 1.7-3 3.46-3a3.502 3.502 0 0 1 3.46 3h2.08a3.503 3.503 0 0 1 3.46-3c1.93 0 3.5 1.57 3.5 3.5zm-15 8c0 1.378 1.122 2.5 2.5 2.5s2.5-1.122 2.5-2.5-1.122-2.5-2.5-2.5S9 19.122 9 20.5zM5 9c2.206 0 4-1.794 4-4S7.206 1 5 1 1 2.794 1 5s1.794 4 4 4zm9 3.5c0-1.378-1.122-2.5-2.5-2.5S9 11.122 9 12.5s1.122 2.5 2.5 2.5 2.5-1.122 2.5-2.5zm9 0c0-1.378-1.122-2.5-2.5-2.5S18 11.122 18 12.5s1.122 2.5 2.5 2.5 2.5-1.122 2.5-2.5zm-13 8a.5.5 0 1 0 1 0 .5.5 0 0 0-1 0zm2 0a.5.5 0 1 0 1 0 .5.5 0 0 0-1 0zm12 0c0 1.93-1.57 3.5-3.5 3.5a3.503 3.503 0 0 1-3.46-3.002c-.007.001-.013.005-.021.005l-.506.017h-.017a.5.5 0 0 1-.016-.999l.506-.017c.018-.002.035.006.052.007A3.503 3.503 0 0 1 20.5 17c1.93 0 3.5 1.57 3.5 3.5zm-1 0c0-1.378-1.122-2.5-2.5-2.5S18 19.122 18 20.5s1.122 2.5 2.5 2.5 2.5-1.122 2.5-2.5z"/></svg><text x="368" y="117" font-family="Segoe UI, -apple-system, Helvetica, Arial, sans-serif" font-size="15" font-weight="700" fill="#1F2328" text-anchor="start">GitHub Actions</text><text x="368" y="134" font-family="Segoe UI, -apple-system, Helvetica, Arial, sans-serif" font-size="11" font-weight="400" fill="#59636E" text-anchor="start">every 3 h · 10:00 IST = daily edition · runs with your PC off</text>
<rect x="580" y="164" width="486" height="732" rx="14" fill="#FFFFFF" stroke="#7FC8FF" stroke-width="1.5"/><svg x="594" y="176" width="26" height="26" viewBox="0 0 24 24"><path fill="#7FC8FF" d="M5 19H10A5 5 0 115 14ZM19 14A5 5 0 1114 19H19ZM10 5A5 5 0 105 10V5ZM19 5V10A5 5 0 1014 5Z"/></svg><text x="628" y="189" font-family="Segoe UI, -apple-system, Helvetica, Arial, sans-serif" font-size="15" font-weight="700" fill="#1F2328" text-anchor="start">AI agents · LangGraph</text><text x="628" y="206" font-family="Segoe UI, -apple-system, Helvetica, Arial, sans-serif" font-size="11" font-weight="400" fill="#59636E" text-anchor="start">9 agents · run order fixed in code</text>
<rect x="1106" y="92" width="510" height="822" rx="14" fill="#F6F8FA" stroke="#D1D9E0" stroke-width="1.5"/><text x="1122" y="117" font-family="Segoe UI, -apple-system, Helvetica, Arial, sans-serif" font-size="15" font-weight="700" fill="#1F2328" text-anchor="start">Outputs</text><text x="1122" y="134" font-family="Segoe UI, -apple-system, Helvetica, Arial, sans-serif" font-size="11" font-weight="400" fill="#59636E" text-anchor="start">website · monitoring · email</text>
<path d="M296 298 L344 298" fill="none" stroke="#59636E" stroke-width="1.6" marker-end="url(#arrow)"/>
<path d="M450 346 L450 420" fill="none" stroke="#59636E" stroke-width="1.6" marker-end="url(#arrow)"/>
<path d="M450 516 L450 590" fill="none" stroke="#59636E" stroke-width="1.6" marker-end="url(#arrow)"/>
<path d="M556 638 L572 638 L572 339 L600 339" fill="none" stroke="#59636E" stroke-width="1.6" marker-start="url(#arrowStart)" marker-end="url(#arrow)"/>
<path d="M800 339 L846 339" fill="none" stroke="#59636E" stroke-width="1.6" marker-end="url(#arrow)"/>
<path d="M946 408 L946 540" fill="none" stroke="#59636E" stroke-width="1.6" stroke-dasharray="6 4" marker-end="url(#arrow)"/>
<path d="M946 636 L946 716" fill="none" stroke="#59636E" stroke-width="1.6" marker-end="url(#arrow)"/>
<path d="M846 780 L826 780 L826 600 L846 600" fill="none" stroke="#59636E" stroke-width="1.6" stroke-dasharray="6 4" marker-end="url(#arrow)"/>
<path d="M996 312 L996 258 L1126 258" fill="none" stroke="#59636E" stroke-width="1.6" marker-end="url(#arrow)"/>
<path d="M1046 744 L1094 744 L1094 298 L1126 298" fill="none" stroke="#59636E" stroke-width="1.6" marker-end="url(#arrow)"/>
<path d="M1236 322 L1236 430" fill="none" stroke="#59636E" stroke-width="1.6" marker-end="url(#arrow)"/>
<path d="M1046 780 L1126 780" fill="none" stroke="#59636E" stroke-width="1.6" stroke-dasharray="6 4" marker-end="url(#arrow)"/>
<path d="M1346 478 L1390 478" fill="none" stroke="#59636E" stroke-width="1.6" marker-end="url(#arrow)"/>
<path d="M1346 712 L1366 712 L1366 516 L1390 516" fill="none" stroke="#59636E" stroke-width="1.6" marker-end="url(#arrow)"/>
<path d="M1493 540 L1493 690" fill="none" stroke="#59636E" stroke-width="1.6" marker-end="url(#arrow)"/>
<path d="M1390 760 L1346 760" fill="none" stroke="#59636E" stroke-width="1.6" marker-end="url(#arrow)"/>
<path d="M1086 852 L1126 852" fill="none" stroke="#59636E" stroke-width="1.6" marker-end="url(#arrow)"/>
<rect x="40" y="146" width="240" height="51" rx="10" fill="#FFFFFF" stroke="#D1D9E0" stroke-width="1.2" filter="url(#shadow)"/><svg x="52" y="158.5" width="26" height="26" viewBox="0 0 24 24"><path fill="#000000" d="M22.2819 9.8211a5.9847 5.9847 0 0 0-.5157-4.9108 6.0462 6.0462 0 0 0-6.5098-2.9A6.0651 6.0651 0 0 0 4.9807 4.1818a5.9847 5.9847 0 0 0-3.9977 2.9 6.0462 6.0462 0 0 0 .7427 7.0966 5.98 5.98 0 0 0 .511 4.9107 6.051 6.051 0 0 0 6.5146 2.9001A5.9847 5.9847 0 0 0 13.2599 24a6.0557 6.0557 0 0 0 5.7718-4.2058 5.9894 5.9894 0 0 0 3.9977-2.9001 6.0557 6.0557 0 0 0-.7475-7.0729zm-9.022 12.6081a4.4755 4.4755 0 0 1-2.8764-1.0408l.1419-.0804 4.7783-2.7582a.7948.7948 0 0 0 .3927-.6813v-6.7369l2.02 1.1686a.071.071 0 0 1 .038.052v5.5826a4.504 4.504 0 0 1-4.4945 4.4944zm-9.6607-4.1254a4.4708 4.4708 0 0 1-.5346-3.0137l.142.0852 4.783 2.7582a.7712.7712 0 0 0 .7806 0l5.8428-3.3685v2.3324a.0804.0804 0 0 1-.0332.0615L9.74 19.9502a4.4992 4.4992 0 0 1-6.1408-1.6464zM2.3408 7.8956a4.485 4.485 0 0 1 2.3655-1.9728V11.6a.7664.7664 0 0 0 .3879.6765l5.8144 3.3543-2.0201 1.1685a.0757.0757 0 0 1-.071 0l-4.8303-2.7865A4.504 4.504 0 0 1 2.3408 7.872zm16.5963 3.8558L13.1038 8.364 15.1192 7.2a.0757.0757 0 0 1 .071 0l4.8303 2.7913a4.4944 4.4944 0 0 1-.6765 8.1042v-5.6772a.79.79 0 0 0-.407-.667zm2.0107-3.0231l-.142-.0852-4.7735-2.7818a.7759.7759 0 0 0-.7854 0L9.409 9.2297V6.8974a.0662.0662 0 0 1 .0284-.0615l4.8303-2.7866a4.4992 4.4992 0 0 1 6.6802 4.66zM8.3065 12.863l-2.02-1.1638a.0804.0804 0 0 1-.038-.0567V6.0742a4.4992 4.4992 0 0 1 7.3757-3.4537l-.142.0805L8.704 5.459a.7948.7948 0 0 0-.3927.6813zm1.0976-2.3654l2.602-1.4998 2.6069 1.4998v2.9994l-2.5974 1.4997-2.6067-1.4997Z"/></svg><text x="86" y="168" font-family="Segoe UI, -apple-system, Helvetica, Arial, sans-serif" font-size="12.5" font-weight="700" fill="#1F2328" text-anchor="start">OpenAI</text><text x="86" y="184" font-family="Segoe UI, -apple-system, Helvetica, Arial, sans-serif" font-size="10.5" font-weight="400" fill="#59636E" text-anchor="start">News RSS</text><circle cx="267" cy="159" r="5" fill="#1A7F37"/>
<rect x="40" y="205" width="240" height="51" rx="10" fill="#FFFFFF" stroke="#D1D9E0" stroke-width="1.2" filter="url(#shadow)"/><svg x="52" y="217.5" width="26" height="26" viewBox="0 0 24 24"><path fill="#4285F4" d="m5.99,1.62a8.54,8.54 0 0 0 -2.54,6.83c0.35,4.4 4.51,7.99 8.28,7.99c3.5,0 4.88,-3.06 4.54,-5.14a4.32,4.32 0 0 0 -0.95,-2.07c0.63,0.34 1.24,0.77 1.81,1.3c1.52,1.41 2.44,3.23 2.58,5.1c0.33,4.13 -2.73,8.37 -7.85,8.37c-1.69,0 -3.48,-0.43 -4.98,-1.14c-4.06,-1.92 -6.88,-6.06 -6.88,-10.86c0,-4.43 2.41,-8.3 5.99,-10.38zm6.15,-1.62c1.69,0 3.48,0.43 4.98,1.14a12,12 0 0 1 6.88,10.86c0,4.43 -2.41,8.3 -5.99,10.38a8.54,8.54 0 0 0 2.54,-6.83c-0.35,-4.4 -4.51,-7.99 -8.28,-7.99c-3.5,0 -4.88,3.06 -4.54,5.14a4.3,4.3 0 0 0 0.96,2.07a8.72,8.72 0 0 1 -1.81,-1.3c-1.52,-1.41 -2.44,-3.23 -2.59,-5.1c-0.33,-4.13 2.73,-8.37 7.85,-8.37z"/></svg><text x="86" y="227" font-family="Segoe UI, -apple-system, Helvetica, Arial, sans-serif" font-size="12.5" font-weight="700" fill="#1F2328" text-anchor="start">Google DeepMind</text><text x="86" y="243" font-family="Segoe UI, -apple-system, Helvetica, Arial, sans-serif" font-size="10.5" font-weight="400" fill="#59636E" text-anchor="start">Blog RSS</text><circle cx="267" cy="218" r="5" fill="#1A7F37"/>
<rect x="40" y="264" width="240" height="51" rx="10" fill="#FFFFFF" stroke="#D1D9E0" stroke-width="1.2" filter="url(#shadow)"/><svg x="52" y="276.5" width="26" height="26" viewBox="0 0 24 24"><path fill="#191919" d="M17.3041 3.541h-3.6718l6.696 16.918H24Zm-10.6082 0L0 20.459h3.7442l1.3693-3.5527h7.0052l1.3693 3.5528h3.7442L10.5363 3.5409Zm-.3712 10.2232 2.2914-5.9456 2.2914 5.9456Z"/></svg><text x="86" y="286" font-family="Segoe UI, -apple-system, Helvetica, Arial, sans-serif" font-size="12.5" font-weight="700" fill="#1F2328" text-anchor="start">Anthropic</text><text x="86" y="302" font-family="Segoe UI, -apple-system, Helvetica, Arial, sans-serif" font-size="10.5" font-weight="400" fill="#59636E" text-anchor="start">News page</text><circle cx="267" cy="277" r="5" fill="#1A7F37"/>
<rect x="40" y="323" width="240" height="51" rx="10" fill="#FFFFFF" stroke="#D1D9E0" stroke-width="1.2" filter="url(#shadow)"/><svg x="52" y="335.5" width="26" height="26" viewBox="0 0 24 24"><path fill="#FA520F" d="M17.143 3.429v3.428h-3.429v3.429h-3.428V6.857H6.857V3.43H3.43v13.714H0v3.428h10.286v-3.428H6.857v-3.429h3.429v3.429h3.429v-3.429h3.428v3.429h-3.428v3.428H24v-3.428h-3.43V3.429z"/></svg><text x="86" y="345" font-family="Segoe UI, -apple-system, Helvetica, Arial, sans-serif" font-size="12.5" font-weight="700" fill="#1F2328" text-anchor="start">Mistral AI</text><text x="86" y="361" font-family="Segoe UI, -apple-system, Helvetica, Arial, sans-serif" font-size="10.5" font-weight="400" fill="#59636E" text-anchor="start">News RSS</text><circle cx="267" cy="336" r="5" fill="#1A7F37"/>
<rect x="40" y="382" width="240" height="51" rx="10" fill="#FFFFFF" stroke="#D1D9E0" stroke-width="1.2" filter="url(#shadow)"/><svg x="52" y="394.5" width="26" height="26" viewBox="0 0 24 24"><path fill="#76B900" d="M8.948 8.798v-1.43a6.7 6.7 0 0 1 .424-.018c3.922-.124 6.493 3.374 6.493 3.374s-2.774 3.851-5.75 3.851c-.398 0-.787-.062-1.158-.185v-4.346c1.528.185 1.837.857 2.747 2.385l2.04-1.714s-1.492-1.952-4-1.952a6.016 6.016 0 0 0-.796.035m0-4.735v2.138l.424-.027c5.45-.185 9.01 4.47 9.01 4.47s-4.08 4.964-8.33 4.964c-.37 0-.733-.035-1.095-.097v1.325c.3.035.61.062.91.062 3.957 0 6.82-2.023 9.593-4.408.459.371 2.34 1.263 2.73 1.652-2.633 2.208-8.772 3.984-12.253 3.984-.335 0-.653-.018-.971-.053v1.864H24V4.063zm0 10.326v1.131c-3.657-.654-4.673-4.46-4.673-4.46s1.758-1.944 4.673-2.262v1.237H8.94c-1.528-.186-2.73 1.245-2.73 1.245s.68 2.412 2.739 3.11M2.456 10.9s2.164-3.197 6.5-3.533V6.201C4.153 6.59 0 10.653 0 10.653s2.35 6.802 8.948 7.42v-1.237c-4.84-.6-6.492-5.936-6.492-5.936z"/></svg><text x="86" y="404" font-family="Segoe UI, -apple-system, Helvetica, Arial, sans-serif" font-size="12.5" font-weight="700" fill="#1F2328" text-anchor="start">Microsoft · NVIDIA · Meta</text><text x="86" y="420" font-family="Segoe UI, -apple-system, Helvetica, Arial, sans-serif" font-size="10.5" font-weight="400" fill="#59636E" text-anchor="start">Research + dev blogs</text><circle cx="267" cy="395" r="5" fill="#1A7F37"/>
<rect x="40" y="441" width="240" height="51" rx="10" fill="#FFFFFF" stroke="#D1D9E0" stroke-width="1.2" filter="url(#shadow)"/><svg x="52" y="453.5" width="26" height="26" viewBox="0 0 24 24"><path fill="#FFD21E" d="M12.025 1.13c-5.77 0-10.449 4.647-10.449 10.378 0 1.112.178 2.181.503 3.185.064-.222.203-.444.416-.577a.96.96 0 0 1 .524-.15c.293 0 .584.124.84.284.278.173.48.408.71.694.226.282.458.611.684.951v-.014c.017-.324.106-.622.264-.874s.403-.487.762-.543c.3-.047.596.06.787.203s.31.313.4.467c.15.257.212.468.233.542.01.026.653 1.552 1.657 2.54.616.605 1.01 1.223 1.082 1.912.055.537-.096 1.059-.38 1.572.637.121 1.294.187 1.967.187.657 0 1.298-.063 1.921-.178-.287-.517-.44-1.041-.384-1.581.07-.69.465-1.307 1.081-1.913 1.004-.987 1.647-2.513 1.657-2.539.021-.074.083-.285.233-.542.09-.154.208-.323.4-.467a1.08 1.08 0 0 1 .787-.203c.359.056.604.29.762.543s.247.55.265.874v.015c.225-.34.457-.67.683-.952.23-.286.432-.52.71-.694.257-.16.547-.284.84-.285a.97.97 0 0 1 .524.151c.228.143.373.388.43.625l.006.04a10.3 10.3 0 0 0 .534-3.273c0-5.731-4.678-10.378-10.449-10.378M8.327 6.583a1.5 1.5 0 0 1 .713.174 1.487 1.487 0 0 1 .617 2.013c-.183.343-.762-.214-1.102-.094-.38.134-.532.914-.917.71a1.487 1.487 0 0 1 .69-2.803m7.486 0a1.487 1.487 0 0 1 .689 2.803c-.385.204-.536-.576-.916-.71-.34-.12-.92.437-1.103.094a1.487 1.487 0 0 1 .617-2.013 1.5 1.5 0 0 1 .713-.174m-10.68 1.55a.96.96 0 1 1 0 1.921.96.96 0 0 1 0-1.92m13.838 0a.96.96 0 1 1 0 1.92.96.96 0 0 1 0-1.92M8.489 11.458c.588.01 1.965 1.157 3.572 1.164 1.607-.007 2.984-1.155 3.572-1.164.196-.003.305.12.305.454 0 .886-.424 2.328-1.563 3.202-.22-.756-1.396-1.366-1.63-1.32q-.011.001-.02.006l-.044.026-.01.008-.03.024q-.018.017-.035.036l-.032.04a1 1 0 0 0-.058.09l-.014.025q-.049.088-.11.19a1 1 0 0 1-.083.116 1.2 1.2 0 0 1-.173.18q-.035.029-.075.058a1.3 1.3 0 0 1-.251-.243 1 1 0 0 1-.076-.107c-.124-.193-.177-.363-.337-.444-.034-.016-.104-.008-.2.022q-.094.03-.216.087-.06.028-.125.063l-.13.074q-.067.04-.136.086a3 3 0 0 0-.135.096 3 3 0 0 0-.26.219 2 2 0 0 0-.12.121 2 2 0 0 0-.106.128l-.002.002a2 2 0 0 0-.09.132l-.001.001a1.2 1.2 0 0 0-.105.212q-.013.036-.024.073c-1.139-.875-1.563-2.317-1.563-3.203 0-.334.109-.457.305-.454m.836 10.354c.824-1.19.766-2.082-.365-3.194-1.13-1.112-1.789-2.738-1.789-2.738s-.246-.945-.806-.858-.97 1.499.202 2.362c1.173.864-.233 1.45-.685.64-.45-.812-1.683-2.896-2.322-3.295s-1.089-.175-.938.647 2.822 2.813 2.562 3.244-1.176-.506-1.176-.506-2.866-2.567-3.49-1.898.473 1.23 2.037 2.16c1.564.932 1.686 1.178 1.464 1.53s-3.675-2.511-4-1.297c-.323 1.214 3.524 1.567 3.287 2.405-.238.839-2.71-1.587-3.216-.642-.506.946 3.49 2.056 3.522 2.064 1.29.33 4.568 1.028 5.713-.624m5.349 0c-.824-1.19-.766-2.082.365-3.194 1.13-1.112 1.789-2.738 1.789-2.738s.246-.945.806-.858.97 1.499-.202 2.362c-1.173.864.233 1.45.685.64.451-.812 1.683-2.896 2.322-3.295s1.089-.175.938.647-2.822 2.813-2.562 3.244 1.176-.506 1.176-.506 2.866-2.567 3.49-1.898-.473 1.23-2.037 2.16c-1.564.932-1.686 1.178-1.464 1.53s3.675-2.511 4-1.297c.323 1.214-3.524 1.567-3.287 2.405.238.839 2.71-1.587 3.216-.642.506.946-3.49 2.056-3.522 2.064-1.29.33-4.568 1.028-5.713-.624"/></svg><text x="86" y="463" font-family="Segoe UI, -apple-system, Helvetica, Arial, sans-serif" font-size="12.5" font-weight="700" fill="#1F2328" text-anchor="start">Hugging Face</text><text x="86" y="479" font-family="Segoe UI, -apple-system, Helvetica, Arial, sans-serif" font-size="10.5" font-weight="400" fill="#59636E" text-anchor="start">Blog · Papers · Trending</text><circle cx="267" cy="454" r="5" fill="#1A7F37"/>
<rect x="40" y="500" width="240" height="51" rx="10" fill="#FFFFFF" stroke="#D1D9E0" stroke-width="1.2" filter="url(#shadow)"/><svg x="52" y="512.5" width="26" height="26" viewBox="0 0 24 24"><path fill="#B31B1B" d="M3.8423 0a1.0037 1.0037 0 0 0-.922.6078c-.1536.3687-.0438.6275.2938 1.1113l6.9185 8.3597-1.0223 1.1058a1.0393 1.0393 0 0 0 .003 1.4229l1.2292 1.3135-5.4391 6.4444c-.2803.299-.4538.823-.2971 1.1986a1.0253 1.0253 0 0 0 .9585.635.9133.9133 0 0 0 .6891-.3405l5.783-6.126 7.4902 8.0051a.8527.8527 0 0 0 .6835.2597.9575.9575 0 0 0 .8777-.6138c.1577-.377-.017-.7502-.306-1.1407l-7.0518-8.3418 1.0632-1.13a.9626.9626 0 0 0 .0089-1.3165L4.6336.4639s-.3733-.4535-.768-.463zm0 .272h.0166c.2179.0052.4874.2715.5644.3639l.005.006.0052.0055 10.169 10.9905a.6915.6915 0 0 1-.0072.945l-1.0666 1.133-1.4982-1.7724-8.5994-10.39c-.3286-.472-.352-.6183-.2592-.841a.7307.7307 0 0 1 .6704-.4401Zm14.341 1.5701a.877.877 0 0 0-.6554.2418l-5.6962 6.1584 1.6944 1.8319 5.3089-6.5138c.3251-.4335.479-.6603.3247-1.0292a1.1205 1.1205 0 0 0-.9763-.689zm-7.6557 12.2823 1.3186 1.4135-5.7864 6.1295a.6494.6494 0 0 1-.4959.26.7516.7516 0 0 1-.706-.4669c-.1119-.2682.0359-.6864.2442-.9083l.0051-.0055.0047-.0055z"/></svg><text x="86" y="522" font-family="Segoe UI, -apple-system, Helvetica, Arial, sans-serif" font-size="12.5" font-weight="700" fill="#1F2328" text-anchor="start">arXiv + BAIR</text><text x="86" y="538" font-family="Segoe UI, -apple-system, Helvetica, Arial, sans-serif" font-size="10.5" font-weight="400" fill="#59636E" text-anchor="start">Papers on LLMs &amp; agents</text><circle cx="267" cy="513" r="5" fill="#1A7F37"/>
<rect x="40" y="559" width="240" height="51" rx="10" fill="#FFFFFF" stroke="#D1D9E0" stroke-width="1.2" filter="url(#shadow)"/><svg x="52" y="571.5" width="26" height="26" viewBox="0 0 24 24"><path fill="#FF9900" d="M6.763 10.036c0 .296.032.535.088.71.064.176.144.368.256.576.04.063.056.127.056.183 0 .08-.048.16-.152.24l-.503.335a.383.383 0 0 1-.208.072c-.08 0-.16-.04-.239-.112a2.47 2.47 0 0 1-.287-.375 6.18 6.18 0 0 1-.248-.471c-.622.734-1.405 1.101-2.347 1.101-.67 0-1.205-.191-1.596-.574-.391-.384-.59-.894-.59-1.533 0-.678.239-1.23.726-1.644.487-.415 1.133-.623 1.955-.623.272 0 .551.024.846.064.296.04.6.104.918.176v-.583c0-.607-.127-1.03-.375-1.277-.255-.248-.686-.367-1.3-.367-.28 0-.568.031-.863.103-.295.072-.583.16-.862.272a2.287 2.287 0 0 1-.28.104.488.488 0 0 1-.127.023c-.112 0-.168-.08-.168-.247v-.391c0-.128.016-.224.056-.28a.597.597 0 0 1 .224-.167c.279-.144.614-.264 1.005-.36a4.84 4.84 0 0 1 1.246-.151c.95 0 1.644.216 2.091.647.439.43.662 1.085.662 1.963v2.586zm-3.24 1.214c.263 0 .534-.048.822-.144.287-.096.543-.271.758-.51.128-.152.224-.32.272-.512.047-.191.08-.423.08-.694v-.335a6.66 6.66 0 0 0-.735-.136 6.02 6.02 0 0 0-.75-.048c-.535 0-.926.104-1.19.32-.263.215-.39.518-.39.917 0 .375.095.655.295.846.191.2.47.296.838.296zm6.41.862c-.144 0-.24-.024-.304-.08-.064-.048-.12-.16-.168-.311L7.586 5.55a1.398 1.398 0 0 1-.072-.32c0-.128.064-.2.191-.2h.783c.151 0 .255.025.31.08.065.048.113.16.16.312l1.342 5.284 1.245-5.284c.04-.16.088-.264.151-.312a.549.549 0 0 1 .32-.08h.638c.152 0 .256.025.32.08.063.048.12.16.151.312l1.261 5.348 1.381-5.348c.048-.16.104-.264.16-.312a.52.52 0 0 1 .311-.08h.743c.127 0 .2.065.2.2 0 .04-.009.08-.017.128a1.137 1.137 0 0 1-.056.2l-1.923 6.17c-.048.16-.104.263-.168.311a.51.51 0 0 1-.303.08h-.687c-.151 0-.255-.024-.32-.08-.063-.056-.119-.16-.15-.32l-1.238-5.148-1.23 5.14c-.04.16-.087.264-.15.32-.065.056-.177.08-.32.08zm10.256.215c-.415 0-.83-.048-1.229-.143-.399-.096-.71-.2-.918-.32-.128-.071-.215-.151-.247-.223a.563.563 0 0 1-.048-.224v-.407c0-.167.064-.247.183-.247.048 0 .096.008.144.024.048.016.12.048.2.08.271.12.566.215.878.279.319.064.63.096.95.096.502 0 .894-.088 1.165-.264a.86.86 0 0 0 .415-.758.777.777 0 0 0-.215-.559c-.144-.151-.416-.287-.807-.415l-1.157-.36c-.583-.183-1.014-.454-1.277-.813a1.902 1.902 0 0 1-.4-1.158c0-.335.073-.63.216-.886.144-.255.335-.479.575-.654.24-.184.51-.32.83-.415.32-.096.655-.136 1.006-.136.175 0 .359.008.535.032.183.024.35.056.518.088.16.04.312.08.455.127.144.048.256.096.336.144a.69.69 0 0 1 .24.2.43.43 0 0 1 .071.263v.375c0 .168-.064.256-.184.256a.83.83 0 0 1-.303-.096 3.652 3.652 0 0 0-1.532-.311c-.455 0-.815.071-1.062.223-.248.152-.375.383-.375.71 0 .224.08.416.24.567.159.152.454.304.877.44l1.134.358c.574.184.99.44 1.237.767.247.327.367.702.367 1.117 0 .343-.072.655-.207.926-.144.272-.336.511-.583.703-.248.2-.543.343-.886.447-.36.111-.734.167-1.142.167zM21.698 16.207c-2.626 1.94-6.442 2.969-9.722 2.969-4.598 0-8.74-1.7-11.87-4.526-.247-.223-.024-.527.272-.351 3.384 1.963 7.559 3.153 11.877 3.153 2.914 0 6.114-.607 9.06-1.852.439-.2.814.287.383.607zM22.792 14.961c-.336-.43-2.22-.207-3.074-.103-.255.032-.295-.192-.063-.36 1.5-1.053 3.967-.75 4.254-.399.287.36-.08 2.826-1.485 4.007-.215.184-.423.088-.327-.151.32-.79 1.03-2.57.695-2.994z"/></svg><text x="86" y="581" font-family="Segoe UI, -apple-system, Helvetica, Arial, sans-serif" font-size="12.5" font-weight="700" fill="#1F2328" text-anchor="start">Cloud platforms</text><text x="86" y="597" font-family="Segoe UI, -apple-system, Helvetica, Arial, sans-serif" font-size="10.5" font-weight="400" fill="#59636E" text-anchor="start">AWS · Azure · Google Cloud</text><circle cx="267" cy="572" r="5" fill="#1A7F37"/>
<rect x="40" y="618" width="240" height="51" rx="10" fill="#FFFFFF" stroke="#D1D9E0" stroke-width="1.2" filter="url(#shadow)"/><svg x="52" y="630.5" width="26" height="26" viewBox="0 0 24 24"><path fill="#F0652F" d="M0 24V0h24v24H0zM6.951 5.896l4.112 7.708v5.064h1.583v-4.972l4.148-7.799h-1.749l-2.457 4.875c-.372.745-.688 1.434-.688 1.434s-.297-.708-.651-1.434L8.831 5.896h-1.88z"/></svg><text x="86" y="640" font-family="Segoe UI, -apple-system, Helvetica, Arial, sans-serif" font-size="12.5" font-weight="700" fill="#1F2328" text-anchor="start">Hacker News · Reddit</text><text x="86" y="656" font-family="Segoe UI, -apple-system, Helvetica, Arial, sans-serif" font-size="10.5" font-weight="400" fill="#59636E" text-anchor="start">HN 50+ points · 4 subreddits</text><circle cx="267" cy="631" r="5" fill="#1A7F37"/>
<rect x="40" y="677" width="240" height="51" rx="10" fill="#FFFFFF" stroke="#D1D9E0" stroke-width="1.2" filter="url(#shadow)"/><svg x="52" y="689.5" width="26" height="26" viewBox="0 0 24 24"><path fill="#FF0000" d="M23.498 6.186a3.016 3.016 0 0 0-2.122-2.136C19.505 3.545 12 3.545 12 3.545s-7.505 0-9.377.505A3.017 3.017 0 0 0 .502 6.186C0 8.07 0 12 0 12s0 3.93.502 5.814a3.016 3.016 0 0 0 2.122 2.136c1.871.505 9.376.505 9.376.505s7.505 0 9.377-.505a3.015 3.015 0 0 0 2.122-2.136C24 15.93 24 12 24 12s0-3.93-.502-5.814zM9.545 15.568V8.432L15.818 12l-6.273 3.568z"/></svg><text x="86" y="699" font-family="Segoe UI, -apple-system, Helvetica, Arial, sans-serif" font-size="12.5" font-weight="700" fill="#1F2328" text-anchor="start">YouTube</text><text x="86" y="715" font-family="Segoe UI, -apple-system, Helvetica, Arial, sans-serif" font-size="10.5" font-weight="400" fill="#59636E" text-anchor="start">AI Explained · Krish Naik</text><circle cx="267" cy="690" r="5" fill="#1A7F37"/>
<rect x="40" y="736" width="240" height="51" rx="10" fill="#FFFFFF" stroke="#D1D9E0" stroke-width="1.2" filter="url(#shadow)"/><svg x="52" y="748.5" width="26" height="26" viewBox="0 0 24 24"><path fill="#FF6719" d="M22.539 8.242H1.46V5.406h21.08v2.836zM1.46 10.812V24L12 18.11 22.54 24V10.812H1.46zM22.54 0H1.46v2.836h21.08V0z"/></svg><text x="86" y="758" font-family="Segoe UI, -apple-system, Helvetica, Arial, sans-serif" font-size="12.5" font-weight="700" fill="#1F2328" text-anchor="start">Newsletters &amp; blogs</text><text x="86" y="774" font-family="Segoe UI, -apple-system, Helvetica, Arial, sans-serif" font-size="10.5" font-weight="400" fill="#59636E" text-anchor="start">Substack · Medium · Gmail</text><circle cx="267" cy="749" r="5" fill="#1A7F37"/>
<rect x="40" y="795" width="240" height="51" rx="10" fill="#FFFFFF" stroke="#D1D9E0" stroke-width="1.2" filter="url(#shadow)"/><svg x="52" y="807.5" width="26" height="26" viewBox="0 0 24 24"><circle cx="10.5" cy="10.5" r="6.5" fill="none" stroke="#0071E3" stroke-width="2.6"/><path d="M15.5 15.5 21 21" stroke="#0071E3" stroke-width="2.8" stroke-linecap="round"/></svg><text x="86" y="817" font-family="Segoe UI, -apple-system, Helvetica, Arial, sans-serif" font-size="12.5" font-weight="700" fill="#1F2328" text-anchor="start">Web search</text><text x="86" y="833" font-family="Segoe UI, -apple-system, Helvetica, Arial, sans-serif" font-size="10.5" font-weight="400" fill="#59636E" text-anchor="start">LinkedIn · X · YC · Coimbatore</text><circle cx="267" cy="808" r="5" fill="#1A7F37"/>
<rect x="40" y="854" width="240" height="51" rx="10" fill="#FFFFFF" stroke="#D1D9E0" stroke-width="1.2" filter="url(#shadow)"/><svg x="52" y="866.5" width="26" height="26" viewBox="0 0 24 24"><path fill="#000000" d="M14.234 10.162 22.977 0h-2.072l-7.591 8.824L7.251 0H.258l9.168 13.343L.258 24H2.33l8.016-9.318L16.749 24h6.993zm-2.837 3.299-.929-1.329L3.076 1.56h3.182l5.965 8.532.929 1.329 7.754 11.09h-3.182z"/></svg><text x="86" y="876" font-family="Segoe UI, -apple-system, Helvetica, Arial, sans-serif" font-size="12.5" font-weight="700" fill="#1F2328" text-anchor="start">X / Twitter</text><text x="86" y="892" font-family="Segoe UI, -apple-system, Helvetica, Arial, sans-serif" font-size="10.5" font-weight="400" fill="#59636E" text-anchor="start">Curated AI accounts</text><circle cx="267" cy="867" r="5" fill="#AFB8C1"/>
<rect x="344" y="250" width="212" height="96" rx="10" fill="#FFFFFF" stroke="#D1D9E0" stroke-width="1.2" filter="url(#shadow)"/><svg x="356" y="277.0" width="26" height="26" viewBox="0 0 24 24"><path fill="#3776AB" d="M14.25.18l.9.2.73.26.59.3.45.32.34.34.25.34.16.33.1.3.04.26.02.2-.01.13V8.5l-.05.63-.13.55-.21.46-.26.38-.3.31-.33.25-.35.19-.35.14-.33.1-.3.07-.26.04-.21.02H8.77l-.69.05-.59.14-.5.22-.41.27-.33.32-.27.35-.2.36-.15.37-.1.35-.07.32-.04.27-.02.21v3.06H3.17l-.21-.03-.28-.07-.32-.12-.35-.18-.36-.26-.36-.36-.35-.46-.32-.59-.28-.73-.21-.88-.14-1.05-.05-1.23.06-1.22.16-1.04.24-.87.32-.71.36-.57.4-.44.42-.33.42-.24.4-.16.36-.1.32-.05.24-.01h.16l.06.01h8.16v-.83H6.18l-.01-2.75-.02-.37.05-.34.11-.31.17-.28.25-.26.31-.23.38-.2.44-.18.51-.15.58-.12.64-.1.71-.06.77-.04.84-.02 1.27.05zm-6.3 1.98l-.23.33-.08.41.08.41.23.34.33.22.41.09.41-.09.33-.22.23-.34.08-.41-.08-.41-.23-.33-.33-.22-.41-.09-.41.09zm13.09 3.95l.28.06.32.12.35.18.36.27.36.35.35.47.32.59.28.73.21.88.14 1.04.05 1.23-.06 1.23-.16 1.04-.24.86-.32.71-.36.57-.4.45-.42.33-.42.24-.4.16-.36.09-.32.05-.24.02-.16-.01h-8.22v.82h5.84l.01 2.76.02.36-.05.34-.11.31-.17.29-.25.25-.31.24-.38.2-.44.17-.51.15-.58.13-.64.09-.71.07-.77.04-.84.01-1.27-.04-1.07-.14-.9-.2-.73-.25-.59-.3-.45-.33-.34-.34-.25-.34-.16-.33-.1-.3-.04-.25-.02-.2.01-.13v-5.34l.05-.64.13-.54.21-.46.26-.38.3-.32.33-.24.35-.2.35-.14.33-.1.3-.06.26-.04.21-.02.13-.01h5.84l.69-.05.59-.14.5-.21.41-.28.33-.32.27-.35.2-.36.15-.36.1-.35.07-.32.04-.28.02-.21V6.07h2.09l.14.01zm-6.47 14.25l-.23.33-.08.41.08.41.23.33.33.23.41.08.41-.08.33-.23.23-.33.08-.41-.08-.41-.23-.33-.33-.23-.41-.08-.41.08z"/></svg><text x="390" y="280" font-family="Segoe UI, -apple-system, Helvetica, Arial, sans-serif" font-size="13" font-weight="700" fill="#1F2328" text-anchor="start">Collectors</text><text x="390" y="296" font-family="Segoe UI, -apple-system, Helvetica, Arial, sans-serif" font-size="10.5" font-weight="400" fill="#59636E" text-anchor="start">Python · httpx · feedparser</text><circle cx="543" cy="263" r="5" fill="#1A7F37"/>
<rect x="344" y="420" width="212" height="96" rx="10" fill="#FFFFFF" stroke="#D1D9E0" stroke-width="1.2" filter="url(#shadow)"/><svg x="356" y="447.0" width="26" height="26" viewBox="0 0 24 24"><path fill="#8250DF" d="M2 3h20l-7.5 9v7.5L9.5 22v-10z"/></svg><text x="390" y="450" font-family="Segoe UI, -apple-system, Helvetica, Arial, sans-serif" font-size="13" font-weight="700" fill="#1F2328" text-anchor="start">Clean + de-duplicate</text><text x="390" y="466" font-family="Segoe UI, -apple-system, Helvetica, Arial, sans-serif" font-size="10.5" font-weight="400" fill="#59636E" text-anchor="start">link cleanup · seen-list 30 d</text><circle cx="543" cy="433" r="5" fill="#1A7F37"/>
<rect x="344" y="590" width="212" height="96" rx="10" fill="#FFFFFF" stroke="#D1D9E0" stroke-width="1.2" filter="url(#shadow)"/><svg x="356" y="617.0" width="26" height="26" viewBox="0 0 24 24"><path fill="#000000" d="M13.85 0a4.16 4.16 0 0 0-2.95 1.217L1.456 10.66a.835.835 0 0 0 0 1.18.835.835 0 0 0 1.18 0l9.442-9.442a2.49 2.49 0 0 1 3.541 0 2.49 2.49 0 0 1 0 3.541L8.59 12.97l-.1.1a.835.835 0 0 0 0 1.18.835.835 0 0 0 1.18 0l.1-.098 7.03-7.034a2.49 2.49 0 0 1 3.542 0l.049.05a2.49 2.49 0 0 1 0 3.54l-8.54 8.54a1.96 1.96 0 0 0 0 2.755l1.753 1.753a.835.835 0 0 0 1.18 0 .835.835 0 0 0 0-1.18l-1.753-1.753a.266.266 0 0 1 0-.394l8.54-8.54a4.185 4.185 0 0 0 0-5.9l-.05-.05a4.16 4.16 0 0 0-2.95-1.218c-.2 0-.401.02-.6.048a4.17 4.17 0 0 0-1.17-3.552A4.16 4.16 0 0 0 13.85 0m0 3.333a.84.84 0 0 0-.59.245L6.275 10.56a4.186 4.186 0 0 0 0 5.902 4.186 4.186 0 0 0 5.902 0L19.16 9.48a.835.835 0 0 0 0-1.18.835.835 0 0 0-1.18 0l-6.985 6.984a2.49 2.49 0 0 1-3.54 0 2.49 2.49 0 0 1 0-3.54l6.983-6.985a.835.835 0 0 0 0-1.18.84.84 0 0 0-.59-.245"/></svg><text x="390" y="620" font-family="Segoe UI, -apple-system, Helvetica, Arial, sans-serif" font-size="13" font-weight="700" fill="#1F2328" text-anchor="start">MCP server</text><text x="390" y="636" font-family="Segoe UI, -apple-system, Helvetica, Arial, sans-serif" font-size="10.5" font-weight="400" fill="#59636E" text-anchor="start">5 read-only news tools</text><circle cx="543" cy="603" r="5" fill="#1A7F37"/>
<rect x="600" y="228" width="200" height="70" rx="10" fill="#FFFFFF" stroke="#D1D9E0" stroke-width="1.2" filter="url(#shadow)"/><path d="M610 228h-0a10 10 0 0 0 -10 10v50a10 10 0 0 0 10 10z" fill="#6950EF"/><text x="620" y="258" font-family="Segoe UI, -apple-system, Helvetica, Arial, sans-serif" font-size="13" font-weight="700" fill="#1F2328" text-anchor="start">Scout · Labs &amp; research</text><svg x="620" y="270" width="16" height="16" viewBox="0 0 24 24"><path fill="#6950EF" d="M23.919 14.545 20.817 9.17l1.47-2.544a.56.56 0 0 0 0-.566l-1.633-2.83a.57.57 0 0 0-.49-.283h-6.207L12.487.402a.57.57 0 0 0-.49-.284H8.732a.56.56 0 0 0-.49.284L5.139 5.775h-2.94a.56.56 0 0 0-.49.284L.077 8.887a.56.56 0 0 0 0 .567L3.18 14.83l-1.47 2.545a.56.56 0 0 0 0 .566l1.634 2.83a.57.57 0 0 0 .49.283h6.205l1.47 2.545a.57.57 0 0 0 .49.284h3.266a.57.57 0 0 0 .49-.284l3.104-5.375h2.94a.57.57 0 0 0 .49-.283l1.634-2.828a.55.55 0 0 0-.004-.568M8.733.686l1.634 2.828-1.634 2.828H21.8L20.164 9.17H7.425L5.63 6.06Zm1.306 19.801-6.205-.002 1.634-2.83h3.265L2.201 6.344h3.267q3.182 5.517 6.367 11.032zm10.124-5.66L18.53 12l-6.532 11.315-1.634-2.83c2.129-3.673 4.25-7.351 6.373-11.028h3.592l3.102 5.374z"/></svg><svg x="640" y="268" width="32" height="32" viewBox="0 0 48 24"><rect width="48" height="24" rx="6" fill="#F55036"/><text x="24" y="16.5" font-family="Segoe UI, -apple-system, Helvetica, Arial, sans-serif" font-size="13" font-weight="700" fill="#fff" text-anchor="middle">groq</text></svg><text x="678" y="282.5" font-family="Segoe UI, -apple-system, Helvetica, Arial, sans-serif" font-size="10.5" font-weight="600" fill="#3D444D" text-anchor="start">Qwen 3.8 27B</text><circle cx="787" cy="241" r="5" fill="#1A7F37"/>
<rect x="600" y="304" width="200" height="70" rx="10" fill="#FFFFFF" stroke="#D1D9E0" stroke-width="1.2" filter="url(#shadow)"/><path d="M610 304h-0a10 10 0 0 0 -10 10v50a10 10 0 0 0 10 10z" fill="#6950EF"/><text x="620" y="334" font-family="Segoe UI, -apple-system, Helvetica, Arial, sans-serif" font-size="13" font-weight="700" fill="#1F2328" text-anchor="start">Scout · Cloud &amp; platforms</text><svg x="620" y="346" width="16" height="16" viewBox="0 0 24 24"><path fill="#6950EF" d="M23.919 14.545 20.817 9.17l1.47-2.544a.56.56 0 0 0 0-.566l-1.633-2.83a.57.57 0 0 0-.49-.283h-6.207L12.487.402a.57.57 0 0 0-.49-.284H8.732a.56.56 0 0 0-.49.284L5.139 5.775h-2.94a.56.56 0 0 0-.49.284L.077 8.887a.56.56 0 0 0 0 .567L3.18 14.83l-1.47 2.545a.56.56 0 0 0 0 .566l1.634 2.83a.57.57 0 0 0 .49.283h6.205l1.47 2.545a.57.57 0 0 0 .49.284h3.266a.57.57 0 0 0 .49-.284l3.104-5.375h2.94a.57.57 0 0 0 .49-.283l1.634-2.828a.55.55 0 0 0-.004-.568M8.733.686l1.634 2.828-1.634 2.828H21.8L20.164 9.17H7.425L5.63 6.06Zm1.306 19.801-6.205-.002 1.634-2.83h3.265L2.201 6.344h3.267q3.182 5.517 6.367 11.032zm10.124-5.66L18.53 12l-6.532 11.315-1.634-2.83c2.129-3.673 4.25-7.351 6.373-11.028h3.592l3.102 5.374z"/></svg><svg x="640" y="344" width="32" height="32" viewBox="0 0 48 24"><rect width="48" height="24" rx="6" fill="#F55036"/><text x="24" y="16.5" font-family="Segoe UI, -apple-system, Helvetica, Arial, sans-serif" font-size="13" font-weight="700" fill="#fff" text-anchor="middle">groq</text></svg><text x="678" y="358.5" font-family="Segoe UI, -apple-system, Helvetica, Arial, sans-serif" font-size="10.5" font-weight="600" fill="#3D444D" text-anchor="start">Qwen 3.8 27B</text><circle cx="787" cy="317" r="5" fill="#1A7F37"/>
<rect x="600" y="380" width="200" height="70" rx="10" fill="#FFFFFF" stroke="#D1D9E0" stroke-width="1.2" filter="url(#shadow)"/><path d="M610 380h-0a10 10 0 0 0 -10 10v50a10 10 0 0 0 10 10z" fill="#6950EF"/><text x="620" y="410" font-family="Segoe UI, -apple-system, Helvetica, Arial, sans-serif" font-size="13" font-weight="700" fill="#1F2328" text-anchor="start">Scout · Community</text><svg x="620" y="422" width="16" height="16" viewBox="0 0 24 24"><path fill="#6950EF" d="M23.919 14.545 20.817 9.17l1.47-2.544a.56.56 0 0 0 0-.566l-1.633-2.83a.57.57 0 0 0-.49-.283h-6.207L12.487.402a.57.57 0 0 0-.49-.284H8.732a.56.56 0 0 0-.49.284L5.139 5.775h-2.94a.56.56 0 0 0-.49.284L.077 8.887a.56.56 0 0 0 0 .567L3.18 14.83l-1.47 2.545a.56.56 0 0 0 0 .566l1.634 2.83a.57.57 0 0 0 .49.283h6.205l1.47 2.545a.57.57 0 0 0 .49.284h3.266a.57.57 0 0 0 .49-.284l3.104-5.375h2.94a.57.57 0 0 0 .49-.283l1.634-2.828a.55.55 0 0 0-.004-.568M8.733.686l1.634 2.828-1.634 2.828H21.8L20.164 9.17H7.425L5.63 6.06Zm1.306 19.801-6.205-.002 1.634-2.83h3.265L2.201 6.344h3.267q3.182 5.517 6.367 11.032zm10.124-5.66L18.53 12l-6.532 11.315-1.634-2.83c2.129-3.673 4.25-7.351 6.373-11.028h3.592l3.102 5.374z"/></svg><svg x="640" y="420" width="32" height="32" viewBox="0 0 48 24"><rect width="48" height="24" rx="6" fill="#F55036"/><text x="24" y="16.5" font-family="Segoe UI, -apple-system, Helvetica, Arial, sans-serif" font-size="13" font-weight="700" fill="#fff" text-anchor="middle">groq</text></svg><text x="678" y="434.5" font-family="Segoe UI, -apple-system, Helvetica, Arial, sans-serif" font-size="10.5" font-weight="600" fill="#3D444D" text-anchor="start">Qwen 3.8 27B</text><circle cx="787" cy="393" r="5" fill="#1A7F37"/>
<rect x="600" y="456" width="200" height="70" rx="10" fill="#FFFFFF" stroke="#D1D9E0" stroke-width="1.2" filter="url(#shadow)"/><path d="M610 456h-0a10 10 0 0 0 -10 10v50a10 10 0 0 0 10 10z" fill="#6950EF"/><text x="620" y="486" font-family="Segoe UI, -apple-system, Helvetica, Arial, sans-serif" font-size="13" font-weight="700" fill="#1F2328" text-anchor="start">Scout · Video &amp; blogs</text><svg x="620" y="498" width="16" height="16" viewBox="0 0 24 24"><path fill="#6950EF" d="M23.919 14.545 20.817 9.17l1.47-2.544a.56.56 0 0 0 0-.566l-1.633-2.83a.57.57 0 0 0-.49-.283h-6.207L12.487.402a.57.57 0 0 0-.49-.284H8.732a.56.56 0 0 0-.49.284L5.139 5.775h-2.94a.56.56 0 0 0-.49.284L.077 8.887a.56.56 0 0 0 0 .567L3.18 14.83l-1.47 2.545a.56.56 0 0 0 0 .566l1.634 2.83a.57.57 0 0 0 .49.283h6.205l1.47 2.545a.57.57 0 0 0 .49.284h3.266a.57.57 0 0 0 .49-.284l3.104-5.375h2.94a.57.57 0 0 0 .49-.283l1.634-2.828a.55.55 0 0 0-.004-.568M8.733.686l1.634 2.828-1.634 2.828H21.8L20.164 9.17H7.425L5.63 6.06Zm1.306 19.801-6.205-.002 1.634-2.83h3.265L2.201 6.344h3.267q3.182 5.517 6.367 11.032zm10.124-5.66L18.53 12l-6.532 11.315-1.634-2.83c2.129-3.673 4.25-7.351 6.373-11.028h3.592l3.102 5.374z"/></svg><svg x="640" y="496" width="32" height="32" viewBox="0 0 48 24"><rect width="48" height="24" rx="6" fill="#F55036"/><text x="24" y="16.5" font-family="Segoe UI, -apple-system, Helvetica, Arial, sans-serif" font-size="13" font-weight="700" fill="#fff" text-anchor="middle">groq</text></svg><text x="678" y="510.5" font-family="Segoe UI, -apple-system, Helvetica, Arial, sans-serif" font-size="10.5" font-weight="600" fill="#3D444D" text-anchor="start">Qwen 3.8 27B</text><circle cx="787" cy="469" r="5" fill="#1A7F37"/>
<rect x="600" y="532" width="200" height="70" rx="10" fill="#FFFFFF" stroke="#D1D9E0" stroke-width="1.2" filter="url(#shadow)"/><path d="M610 532h-0a10 10 0 0 0 -10 10v50a10 10 0 0 0 10 10z" fill="#6950EF"/><text x="620" y="562" font-family="Segoe UI, -apple-system, Helvetica, Arial, sans-serif" font-size="13" font-weight="700" fill="#1F2328" text-anchor="start">Scout · X</text><svg x="620" y="574" width="16" height="16" viewBox="0 0 24 24"><path fill="#6950EF" d="M23.919 14.545 20.817 9.17l1.47-2.544a.56.56 0 0 0 0-.566l-1.633-2.83a.57.57 0 0 0-.49-.283h-6.207L12.487.402a.57.57 0 0 0-.49-.284H8.732a.56.56 0 0 0-.49.284L5.139 5.775h-2.94a.56.56 0 0 0-.49.284L.077 8.887a.56.56 0 0 0 0 .567L3.18 14.83l-1.47 2.545a.56.56 0 0 0 0 .566l1.634 2.83a.57.57 0 0 0 .49.283h6.205l1.47 2.545a.57.57 0 0 0 .49.284h3.266a.57.57 0 0 0 .49-.284l3.104-5.375h2.94a.57.57 0 0 0 .49-.283l1.634-2.828a.55.55 0 0 0-.004-.568M8.733.686l1.634 2.828-1.634 2.828H21.8L20.164 9.17H7.425L5.63 6.06Zm1.306 19.801-6.205-.002 1.634-2.83h3.265L2.201 6.344h3.267q3.182 5.517 6.367 11.032zm10.124-5.66L18.53 12l-6.532 11.315-1.634-2.83c2.129-3.673 4.25-7.351 6.373-11.028h3.592l3.102 5.374z"/></svg><svg x="640" y="572" width="32" height="32" viewBox="0 0 48 24"><rect width="48" height="24" rx="6" fill="#F55036"/><text x="24" y="16.5" font-family="Segoe UI, -apple-system, Helvetica, Arial, sans-serif" font-size="13" font-weight="700" fill="#fff" text-anchor="middle">groq</text></svg><text x="678" y="586.5" font-family="Segoe UI, -apple-system, Helvetica, Arial, sans-serif" font-size="10.5" font-weight="600" fill="#3D444D" text-anchor="start">Qwen 3.8 27B</text><circle cx="787" cy="545" r="5" fill="#AFB8C1"/>
<rect x="600" y="608" width="200" height="70" rx="10" fill="#FFFFFF" stroke="#D1D9E0" stroke-width="1.2" filter="url(#shadow)"/><path d="M610 608h-0a10 10 0 0 0 -10 10v50a10 10 0 0 0 10 10z" fill="#6950EF"/><text x="620" y="638" font-family="Segoe UI, -apple-system, Helvetica, Arial, sans-serif" font-size="13" font-weight="700" fill="#1F2328" text-anchor="start">Scout · Web search</text><svg x="620" y="650" width="16" height="16" viewBox="0 0 24 24"><path fill="#6950EF" d="M23.919 14.545 20.817 9.17l1.47-2.544a.56.56 0 0 0 0-.566l-1.633-2.83a.57.57 0 0 0-.49-.283h-6.207L12.487.402a.57.57 0 0 0-.49-.284H8.732a.56.56 0 0 0-.49.284L5.139 5.775h-2.94a.56.56 0 0 0-.49.284L.077 8.887a.56.56 0 0 0 0 .567L3.18 14.83l-1.47 2.545a.56.56 0 0 0 0 .566l1.634 2.83a.57.57 0 0 0 .49.283h6.205l1.47 2.545a.57.57 0 0 0 .49.284h3.266a.57.57 0 0 0 .49-.284l3.104-5.375h2.94a.57.57 0 0 0 .49-.283l1.634-2.828a.55.55 0 0 0-.004-.568M8.733.686l1.634 2.828-1.634 2.828H21.8L20.164 9.17H7.425L5.63 6.06Zm1.306 19.801-6.205-.002 1.634-2.83h3.265L2.201 6.344h3.267q3.182 5.517 6.367 11.032zm10.124-5.66L18.53 12l-6.532 11.315-1.634-2.83c2.129-3.673 4.25-7.351 6.373-11.028h3.592l3.102 5.374z"/></svg><svg x="640" y="648" width="32" height="32" viewBox="0 0 48 24"><rect width="48" height="24" rx="6" fill="#F55036"/><text x="24" y="16.5" font-family="Segoe UI, -apple-system, Helvetica, Arial, sans-serif" font-size="13" font-weight="700" fill="#fff" text-anchor="middle">groq</text></svg><text x="678" y="662.5" font-family="Segoe UI, -apple-system, Helvetica, Arial, sans-serif" font-size="10.5" font-weight="600" fill="#3D444D" text-anchor="start">Qwen 3.8 27B</text><circle cx="787" cy="621" r="5" fill="#1A7F37"/>
<rect x="846" y="312" width="200" height="96" rx="10" fill="#FFFFFF" stroke="#D1D9E0" stroke-width="1.2" filter="url(#shadow)"/><path d="M856 312h-0a10 10 0 0 0 -10 10v76a10 10 0 0 0 10 10z" fill="#1F2328"/><text x="866" y="342" font-family="Segoe UI, -apple-system, Helvetica, Arial, sans-serif" font-size="13" font-weight="700" fill="#1F2328" text-anchor="start">Analyst</text><text x="866" y="358" font-family="Segoe UI, -apple-system, Helvetica, Arial, sans-serif" font-size="10.5" font-weight="400" fill="#59636E" text-anchor="start">score · group · 7-day memory</text><svg x="866" y="380" width="16" height="16" viewBox="0 0 24 24"><path fill="#000000" d="M22.2819 9.8211a5.9847 5.9847 0 0 0-.5157-4.9108 6.0462 6.0462 0 0 0-6.5098-2.9A6.0651 6.0651 0 0 0 4.9807 4.1818a5.9847 5.9847 0 0 0-3.9977 2.9 6.0462 6.0462 0 0 0 .7427 7.0966 5.98 5.98 0 0 0 .511 4.9107 6.051 6.051 0 0 0 6.5146 2.9001A5.9847 5.9847 0 0 0 13.2599 24a6.0557 6.0557 0 0 0 5.7718-4.2058 5.9894 5.9894 0 0 0 3.9977-2.9001 6.0557 6.0557 0 0 0-.7475-7.0729zm-9.022 12.6081a4.4755 4.4755 0 0 1-2.8764-1.0408l.1419-.0804 4.7783-2.7582a.7948.7948 0 0 0 .3927-.6813v-6.7369l2.02 1.1686a.071.071 0 0 1 .038.052v5.5826a4.504 4.504 0 0 1-4.4945 4.4944zm-9.6607-4.1254a4.4708 4.4708 0 0 1-.5346-3.0137l.142.0852 4.783 2.7582a.7712.7712 0 0 0 .7806 0l5.8428-3.3685v2.3324a.0804.0804 0 0 1-.0332.0615L9.74 19.9502a4.4992 4.4992 0 0 1-6.1408-1.6464zM2.3408 7.8956a4.485 4.485 0 0 1 2.3655-1.9728V11.6a.7664.7664 0 0 0 .3879.6765l5.8144 3.3543-2.0201 1.1685a.0757.0757 0 0 1-.071 0l-4.8303-2.7865A4.504 4.504 0 0 1 2.3408 7.872zm16.5963 3.8558L13.1038 8.364 15.1192 7.2a.0757.0757 0 0 1 .071 0l4.8303 2.7913a4.4944 4.4944 0 0 1-.6765 8.1042v-5.6772a.79.79 0 0 0-.407-.667zm2.0107-3.0231l-.142-.0852-4.7735-2.7818a.7759.7759 0 0 0-.7854 0L9.409 9.2297V6.8974a.0662.0662 0 0 1 .0284-.0615l4.8303-2.7866a4.4992 4.4992 0 0 1 6.6802 4.66zM8.3065 12.863l-2.02-1.1638a.0804.0804 0 0 1-.038-.0567V6.0742a4.4992 4.4992 0 0 1 7.3757-3.4537l-.142.0805L8.704 5.459a.7948.7948 0 0 0-.3927.6813zm1.0976-2.3654l2.602-1.4998 2.6069 1.4998v2.9994l-2.5974 1.4997-2.6067-1.4997Z"/></svg><svg x="886" y="378" width="32" height="32" viewBox="0 0 48 24"><rect width="48" height="24" rx="6" fill="#F55036"/><text x="24" y="16.5" font-family="Segoe UI, -apple-system, Helvetica, Arial, sans-serif" font-size="13" font-weight="700" fill="#fff" text-anchor="middle">groq</text></svg><text x="924" y="392.5" font-family="Segoe UI, -apple-system, Helvetica, Arial, sans-serif" font-size="10.5" font-weight="600" fill="#3D444D" text-anchor="start">gpt-oss-120b</text><circle cx="1033" cy="325" r="5" fill="#1A7F37"/>
<rect x="846" y="540" width="200" height="96" rx="10" fill="#FFFFFF" stroke="#D1D9E0" stroke-width="1.2" filter="url(#shadow)"/><path d="M856 540h-0a10 10 0 0 0 -10 10v76a10 10 0 0 0 10 10z" fill="#8E75B2"/><text x="866" y="570" font-family="Segoe UI, -apple-system, Helvetica, Arial, sans-serif" font-size="13" font-weight="700" fill="#1F2328" text-anchor="start">Writer</text><text x="866" y="586" font-family="Segoe UI, -apple-system, Helvetica, Arial, sans-serif" font-size="10.5" font-weight="400" fill="#59636E" text-anchor="start">digest + op-ed · 10:00 IST</text><svg x="866" y="608" width="16" height="16" viewBox="0 0 24 24"><path fill="#8E75B2" d="M11.04 19.32Q12 21.51 12 24q0-2.49.93-4.68.96-2.19 2.58-3.81t3.81-2.55Q21.51 12 24 12q-2.49 0-4.68-.93a12.3 12.3 0 0 1-3.81-2.58 12.3 12.3 0 0 1-2.58-3.81Q12 2.49 12 0q0 2.49-.96 4.68-.93 2.19-2.55 3.81a12.3 12.3 0 0 1-3.81 2.58Q2.49 12 0 12q2.49 0 4.68.96 2.19.93 3.81 2.55t2.55 3.81"/></svg><text x="888" y="620.5" font-family="Segoe UI, -apple-system, Helvetica, Arial, sans-serif" font-size="10.5" font-weight="600" fill="#3D444D" text-anchor="start">Gemini Flash</text><circle cx="1033" cy="553" r="5" fill="#1A7F37"/>
<rect x="846" y="716" width="200" height="96" rx="10" fill="#FFFFFF" stroke="#D1D9E0" stroke-width="1.2" filter="url(#shadow)"/><path d="M856 716h-0a10 10 0 0 0 -10 10v76a10 10 0 0 0 10 10z" fill="#1F2328"/><text x="866" y="746" font-family="Segoe UI, -apple-system, Helvetica, Arial, sans-serif" font-size="13" font-weight="700" fill="#1F2328" text-anchor="start">Editor</text><text x="866" y="762" font-family="Segoe UI, -apple-system, Helvetica, Arial, sans-serif" font-size="10.5" font-weight="400" fill="#59636E" text-anchor="start">fact-checks vs sources</text><svg x="866" y="784" width="16" height="16" viewBox="0 0 24 24"><path fill="#000000" d="M22.2819 9.8211a5.9847 5.9847 0 0 0-.5157-4.9108 6.0462 6.0462 0 0 0-6.5098-2.9A6.0651 6.0651 0 0 0 4.9807 4.1818a5.9847 5.9847 0 0 0-3.9977 2.9 6.0462 6.0462 0 0 0 .7427 7.0966 5.98 5.98 0 0 0 .511 4.9107 6.051 6.051 0 0 0 6.5146 2.9001A5.9847 5.9847 0 0 0 13.2599 24a6.0557 6.0557 0 0 0 5.7718-4.2058 5.9894 5.9894 0 0 0 3.9977-2.9001 6.0557 6.0557 0 0 0-.7475-7.0729zm-9.022 12.6081a4.4755 4.4755 0 0 1-2.8764-1.0408l.1419-.0804 4.7783-2.7582a.7948.7948 0 0 0 .3927-.6813v-6.7369l2.02 1.1686a.071.071 0 0 1 .038.052v5.5826a4.504 4.504 0 0 1-4.4945 4.4944zm-9.6607-4.1254a4.4708 4.4708 0 0 1-.5346-3.0137l.142.0852 4.783 2.7582a.7712.7712 0 0 0 .7806 0l5.8428-3.3685v2.3324a.0804.0804 0 0 1-.0332.0615L9.74 19.9502a4.4992 4.4992 0 0 1-6.1408-1.6464zM2.3408 7.8956a4.485 4.485 0 0 1 2.3655-1.9728V11.6a.7664.7664 0 0 0 .3879.6765l5.8144 3.3543-2.0201 1.1685a.0757.0757 0 0 1-.071 0l-4.8303-2.7865A4.504 4.504 0 0 1 2.3408 7.872zm16.5963 3.8558L13.1038 8.364 15.1192 7.2a.0757.0757 0 0 1 .071 0l4.8303 2.7913a4.4944 4.4944 0 0 1-.6765 8.1042v-5.6772a.79.79 0 0 0-.407-.667zm2.0107-3.0231l-.142-.0852-4.7735-2.7818a.7759.7759 0 0 0-.7854 0L9.409 9.2297V6.8974a.0662.0662 0 0 1 .0284-.0615l4.8303-2.7866a4.4992 4.4992 0 0 1 6.6802 4.66zM8.3065 12.863l-2.02-1.1638a.0804.0804 0 0 1-.038-.0567V6.0742a4.4992 4.4992 0 0 1 7.3757-3.4537l-.142.0805L8.704 5.459a.7948.7948 0 0 0-.3927.6813zm1.0976-2.3654l2.602-1.4998 2.6069 1.4998v2.9994l-2.5974 1.4997-2.6067-1.4997Z"/></svg><svg x="886" y="782" width="32" height="32" viewBox="0 0 48 24"><rect width="48" height="24" rx="6" fill="#F55036"/><text x="24" y="16.5" font-family="Segoe UI, -apple-system, Helvetica, Arial, sans-serif" font-size="13" font-weight="700" fill="#fff" text-anchor="middle">groq</text></svg><text x="924" y="796.5" font-family="Segoe UI, -apple-system, Helvetica, Arial, sans-serif" font-size="10.5" font-weight="600" fill="#3D444D" text-anchor="start">gpt-oss-120b</text><circle cx="1033" cy="729" r="5" fill="#1A7F37"/>
<rect x="600" y="684" width="200" height="206" rx="10" fill="#FFFFFF" stroke="#D1D9E0" stroke-width="1.2" filter="url(#shadow)"/><text x="614" y="708" font-family="Segoe UI, -apple-system, Helvetica, Arial, sans-serif" font-size="12.5" font-weight="700" fill="#1F2328" text-anchor="start">Free LLM providers</text><svg x="612" y="723" width="40" height="40" viewBox="0 0 48 24"><rect width="48" height="24" rx="6" fill="#F55036"/><text x="24" y="16.5" font-family="Segoe UI, -apple-system, Helvetica, Arial, sans-serif" font-size="13" font-weight="700" fill="#fff" text-anchor="middle">groq</text></svg><text x="658" y="738" font-family="Segoe UI, -apple-system, Helvetica, Arial, sans-serif" font-size="12" font-weight="600" fill="#1F2328" text-anchor="start">Groq</text><text x="658" y="754" font-family="Segoe UI, -apple-system, Helvetica, Arial, sans-serif" font-size="10.5" font-weight="400" fill="#59636E" text-anchor="start">gpt-oss-120b · Qwen 3.8 27B</text><svg x="620" y="786" width="22" height="22" viewBox="0 0 24 24"><path fill="#8E75B2" d="M11.04 19.32Q12 21.51 12 24q0-2.49.93-4.68.96-2.19 2.58-3.81t3.81-2.55Q21.51 12 24 12q-2.49 0-4.68-.93a12.3 12.3 0 0 1-3.81-2.58 12.3 12.3 0 0 1-2.58-3.81Q12 2.49 12 0q0 2.49-.96 4.68-.93 2.19-2.55 3.81a12.3 12.3 0 0 1-3.81 2.58Q2.49 12 0 12q2.49 0 4.68.96 2.19.93 3.81 2.55t2.55 3.81"/></svg><text x="658" y="796" font-family="Segoe UI, -apple-system, Helvetica, Arial, sans-serif" font-size="12" font-weight="600" fill="#1F2328" text-anchor="start">Google Gemini</text><text x="658" y="812" font-family="Segoe UI, -apple-system, Helvetica, Arial, sans-serif" font-size="10.5" font-weight="400" fill="#59636E" text-anchor="start">Flash · Flash-Lite fallback</text><line x1="612" y1="844" x2="788" y2="844" stroke="#D1D9E0"/><text x="614" y="864" font-family="Segoe UI, -apple-system, Helvetica, Arial, sans-serif" font-size="11.5" font-weight="600" fill="#1F2328" text-anchor="start">~80–100 calls / day</text><text x="614" y="881" font-family="Segoe UI, -apple-system, Helvetica, Arial, sans-serif" font-size="10.5" font-weight="400" fill="#59636E" text-anchor="start">hard cap 150 · free tiers</text>
<rect x="1126" y="226" width="220" height="96" rx="10" fill="#FFFFFF" stroke="#D1D9E0" stroke-width="1.2" filter="url(#shadow)"/><svg x="1138" y="253.0" width="26" height="26" viewBox="0 0 24 24"><path fill="#181717" d="M12 .297c-6.63 0-12 5.373-12 12 0 5.303 3.438 9.8 8.205 11.385.6.113.82-.258.82-.577 0-.285-.01-1.04-.015-2.04-3.338.724-4.042-1.61-4.042-1.61C4.422 18.07 3.633 17.7 3.633 17.7c-1.087-.744.084-.729.084-.729 1.205.084 1.838 1.236 1.838 1.236 1.07 1.835 2.809 1.305 3.495.998.108-.776.417-1.305.76-1.605-2.665-.3-5.466-1.332-5.466-5.93 0-1.31.465-2.38 1.235-3.22-.135-.303-.54-1.523.105-3.176 0 0 1.005-.322 3.3 1.23.96-.267 1.98-.399 3-.405 1.02.006 2.04.138 3 .405 2.28-1.552 3.285-1.23 3.285-1.23.645 1.653.24 2.873.12 3.176.765.84 1.23 1.91 1.23 3.22 0 4.61-2.805 5.625-5.475 5.92.42.36.81 1.096.81 2.22 0 1.606-.015 2.896-.015 3.286 0 .315.21.69.825.57C20.565 22.092 24 17.592 24 12.297c0-6.627-5.373-12-12-12"/></svg><text x="1172" y="256" font-family="Segoe UI, -apple-system, Helvetica, Arial, sans-serif" font-size="13" font-weight="700" fill="#1F2328" text-anchor="start">data/ in the repo</text><text x="1172" y="272" font-family="Segoe UI, -apple-system, Helvetica, Arial, sans-serif" font-size="10.5" font-weight="400" fill="#59636E" text-anchor="start">raw items · stories · digests</text><circle cx="1333" cy="239" r="5" fill="#1A7F37"/>
<rect x="1126" y="430" width="220" height="110" rx="10" fill="#FFFFFF" stroke="#D1D9E0" stroke-width="1.2" filter="url(#shadow)"/><svg x="1138" y="464.0" width="26" height="26" viewBox="0 0 24 24"><circle cx="12" cy="12" r="10" fill="none" stroke="#0969DA" stroke-width="2"/><ellipse cx="12" cy="12" rx="4.2" ry="10" fill="none" stroke="#0969DA" stroke-width="1.6"/><path d="M2.5 8.5h19M2.5 15.5h19" stroke="#0969DA" stroke-width="1.6"/></svg><svg x="1168" y="464.0" width="26" height="26" viewBox="0 0 24 24"><path fill="#BC52EE" d="M8.358 20.162c-1.186-1.07-1.532-3.316-1.038-4.944.856 1.026 2.043 1.352 3.272 1.535 1.897.283 3.76.177 5.522-.678.202-.098.388-.229.608-.36.166.473.209.95.151 1.437-.14 1.185-.738 2.1-1.688 2.794-.38.277-.782.525-1.175.787-1.205.804-1.531 1.747-1.078 3.119l.044.148a3.158 3.158 0 0 1-1.407-1.188 3.31 3.31 0 0 1-.544-1.815c-.004-.32-.004-.642-.048-.958-.106-.769-.472-1.113-1.161-1.133-.707-.02-1.267.411-1.415 1.09-.012.053-.028.104-.045.165h.002zm-5.961-4.445s3.24-1.575 6.49-1.575l2.451-7.565c.092-.366.36-.614.662-.614.302 0 .57.248.662.614l2.45 7.565c3.85 0 6.491 1.575 6.491 1.575L16.088.727C15.93.285 15.663 0 15.303 0H8.697c-.36 0-.615.285-.784.727l-5.516 14.99z"/></svg><text x="1202" y="460" font-family="Segoe UI, -apple-system, Helvetica, Arial, sans-serif" font-size="13" font-weight="700" fill="#1F2328" text-anchor="start">Website</text><text x="1202" y="476" font-family="Segoe UI, -apple-system, Helvetica, Arial, sans-serif" font-size="10.5" font-weight="400" fill="#59636E" text-anchor="start">Latest every 3 h · digest</text><text x="1202" y="490" font-family="Segoe UI, -apple-system, Helvetica, Arial, sans-serif" font-size="10.5" font-weight="400" fill="#59636E" text-anchor="start">+ op-ed · research log</text><circle cx="1333" cy="443" r="5" fill="#1A7F37"/>
<rect x="1126" y="690" width="220" height="96" rx="10" fill="#FFFFFF" stroke="#D1D9E0" stroke-width="1.2" filter="url(#shadow)"/><svg x="1138" y="717.0" width="26" height="26" viewBox="0 0 24 24"><path fill="#EA4335" d="M24 5.457v13.909c0 .904-.732 1.636-1.636 1.636h-3.819V11.73L12 16.64l-6.545-4.91v9.273H1.636A1.636 1.636 0 0 1 0 19.366V5.457c0-2.023 2.309-3.178 3.927-1.964L5.455 4.64 12 9.548l6.545-4.91 1.528-1.145C21.69 2.28 24 3.434 24 5.457z"/></svg><text x="1172" y="720" font-family="Segoe UI, -apple-system, Helvetica, Arial, sans-serif" font-size="13" font-weight="700" fill="#1F2328" text-anchor="start">Daily email</text><text x="1172" y="736" font-family="Segoe UI, -apple-system, Helvetica, Arial, sans-serif" font-size="10.5" font-weight="400" fill="#59636E" text-anchor="start">10:00 IST · once a day</text><circle cx="1333" cy="703" r="5" fill="#AFB8C1"/>
<rect x="1390" y="430" width="206" height="110" rx="10" fill="#FFFFFF" stroke="#D1D9E0" stroke-width="1.2" filter="url(#shadow)"/><svg x="1402" y="464.0" width="26" height="26" viewBox="0 0 24 24"><circle cx="8" cy="7" r="4" fill="#0969DA"/><path fill="#0969DA" d="M0 21c0-4.4 3.6-8 8-8s8 3.6 8 8z"/><circle cx="17" cy="8" r="3.2" fill="#54AEFF"/><path fill="#54AEFF" d="M13 21c.3-3.7 1.6-6.4 4-7 3.3 0 6 2.9 7 7z"/></svg><text x="1436" y="460" font-family="Segoe UI, -apple-system, Helvetica, Arial, sans-serif" font-size="13" font-weight="700" fill="#1F2328" text-anchor="start">Readers</text><text x="1436" y="476" font-family="Segoe UI, -apple-system, Helvetica, Arial, sans-serif" font-size="10.5" font-weight="400" fill="#59636E" text-anchor="start">web + inbox</text>
<rect x="1390" y="690" width="206" height="96" rx="10" fill="#FFFFFF" stroke="#D1D9E0" stroke-width="1.2" filter="url(#shadow)"/><svg x="1402" y="717.0" width="26" height="26" viewBox="0 0 24 24"><path fill="#F38020" d="m8.213.063 8.879 12.136-8.67 11.739h2.476l8.665-11.735-8.89-12.14Zm4.728 0 9.02 11.992-9.018 11.883h2.496L24 12.656v-1.199L15.434.063ZM7.178 2.02.01 11.398l-.01 1.2 7.203 9.644 1.238-1.676-6.396-8.556 6.361-8.313Z"/></svg><svg x="1432" y="717.0" width="26" height="26" viewBox="0 0 24 24"><ellipse cx="12" cy="5" rx="9" ry="3.2" fill="#F38020"/><path fill="#F38020" d="M3 7.5c0 1.8 4 3.2 9 3.2s9-1.4 9-3.2V12c0 1.8-4 3.2-9 3.2S3 13.8 3 12zM3 14.5c0 1.8 4 3.2 9 3.2s9-1.4 9-3.2V19c0 1.8-4 3.2-9 3.2S3 20.8 3 19z"/></svg><text x="1466" y="720" font-family="Segoe UI, -apple-system, Helvetica, Arial, sans-serif" font-size="13" font-weight="700" fill="#1F2328" text-anchor="start">Subscriptions</text><text x="1466" y="736" font-family="Segoe UI, -apple-system, Helvetica, Arial, sans-serif" font-size="10.5" font-weight="400" fill="#59636E" text-anchor="start">Cloudflare Worker + D1</text><circle cx="1583" cy="703" r="5" fill="#AFB8C1"/>
<rect x="1126" y="814" width="470" height="76" rx="10" fill="#FFFFFF" stroke="#D1D9E0" stroke-width="1.2" filter="url(#shadow)"/><svg x="1138" y="831.0" width="26" height="26" viewBox="0 0 24 24"><rect x="2" y="4" width="14" height="3.2" rx="1.6" fill="#0A60FF"/><rect x="6" y="10.4" width="12" height="3.2" rx="1.6" fill="#E3572B"/><rect x="10" y="16.8" width="12" height="3.2" rx="1.6" fill="#1F2328"/></svg><text x="1172" y="844" font-family="Segoe UI, -apple-system, Helvetica, Arial, sans-serif" font-size="13" font-weight="700" fill="#1F2328" text-anchor="start">Langfuse monitoring</text><text x="1172" y="860" font-family="Segoe UI, -apple-system, Helvetica, Arial, sans-serif" font-size="10.5" font-weight="400" fill="#59636E" text-anchor="start">every LLM call traced · run scores · eval scores</text><circle cx="1583" cy="827" r="5" fill="#1A7F37"/>



<rect x="537.5" y="571" width="69.0" height="18" rx="9" fill="#FFFFFF" stroke="#D1D9E0"/><text x="572" y="584" font-family="Segoe UI, -apple-system, Helvetica, Arial, sans-serif" font-size="10" font-weight="600" fill="#3D444D" text-anchor="middle">tool calls</text>

<rect x="899.7" y="465.0" width="92.60000000000001" height="18" rx="9" fill="#FFFFFF" stroke="#D1D9E0"/><text x="946.0" y="478.0" font-family="Segoe UI, -apple-system, Helvetica, Arial, sans-serif" font-size="10" font-weight="600" fill="#3D444D" text-anchor="middle">10:00 IST only</text>

<rect x="803.3" y="681.0" width="45.400000000000006" height="18" rx="9" fill="#FFFFFF" stroke="#D1D9E0"/><text x="826.0" y="694.0" font-family="Segoe UI, -apple-system, Helvetica, Arial, sans-serif" font-size="10" font-weight="600" fill="#3D444D" text-anchor="middle">revise</text>
<rect x="999.95" y="249.0" width="122.10000000000001" height="18" rx="9" fill="#FFFFFF" stroke="#D1D9E0"/><text x="1061.0" y="262.0" font-family="Segoe UI, -apple-system, Helvetica, Arial, sans-serif" font-size="10" font-weight="600" fill="#3D444D" text-anchor="middle">stories · every 3 h</text>
<rect x="1047.7" y="367" width="92.60000000000001" height="18" rx="9" fill="#FFFFFF" stroke="#D1D9E0"/><text x="1094" y="380" font-family="Segoe UI, -apple-system, Helvetica, Arial, sans-serif" font-size="10" font-weight="600" fill="#3D444D" text-anchor="middle">digest + op-ed</text>
<rect x="1189.7" y="367.0" width="92.60000000000001" height="18" rx="9" fill="#FFFFFF" stroke="#D1D9E0"/><text x="1236.0" y="380.0" font-family="Segoe UI, -apple-system, Helvetica, Arial, sans-serif" font-size="10" font-weight="600" fill="#3D444D" text-anchor="middle">build &amp; deploy</text>
<rect x="1054.45" y="771.0" width="63.1" height="18" rx="9" fill="#FFFFFF" stroke="#D1D9E0"/><text x="1086.0" y="784.0" font-family="Segoe UI, -apple-system, Helvetica, Arial, sans-serif" font-size="10" font-weight="600" fill="#3D444D" text-anchor="middle">10:00 IST</text>

<rect x="1346.25" y="605.0" width="39.5" height="18" rx="9" fill="#FFFFFF" stroke="#D1D9E0"/><text x="1366.0" y="618.0" font-family="Segoe UI, -apple-system, Helvetica, Arial, sans-serif" font-size="10" font-weight="600" fill="#3D444D" text-anchor="middle">inbox</text>
<rect x="1461.45" y="606.0" width="63.1" height="18" rx="9" fill="#FFFFFF" stroke="#D1D9E0"/><text x="1493.0" y="619.0" font-family="Segoe UI, -apple-system, Helvetica, Arial, sans-serif" font-size="10" font-weight="600" fill="#3D444D" text-anchor="middle">subscribe</text>
<rect x="1351.2" y="751.0" width="33.6" height="18" rx="9" fill="#FFFFFF" stroke="#D1D9E0"/><text x="1368.0" y="764.0" font-family="Segoe UI, -apple-system, Helvetica, Arial, sans-serif" font-size="10" font-weight="600" fill="#3D444D" text-anchor="middle">list</text>
<rect x="1083.3" y="843.0" width="45.400000000000006" height="18" rx="9" fill="#FFFFFF" stroke="#D1D9E0"/><text x="1106.0" y="856.0" font-family="Segoe UI, -apple-system, Helvetica, Arial, sans-serif" font-size="10" font-weight="600" fill="#3D444D" text-anchor="middle">traces</text>
</svg>